<svg xmlns="http://www.w3.org/2000/svg" viewBox="0 0 320.9 102.19" fill="#fff" xmlns:v="https://vecta.io/nano"><path d="M104.69 51.33v12.95c0 2.4.5 3.92 1.52 4.55 1.01.63 2.23.94 3.65.94h2.54v4.02H85.84v-4.02h2.54c1.37 0 2.57-.29 3.6-.86 1.04-.57 1.56-1.98 1.56-4.22V24.45c0-2.24-.52-3.66-1.56-4.26s-2.24-.9-3.6-.9h-2.54v-4.02h26.55v4.02h-2.54c-1.42 0-2.64.31-3.65.94s-1.52 2.14-1.52 4.55v20.65 5.9zm43 22.4v-3.78h1.07c.98 0 1.94-.12 2.87-.35s1.71-.72 2.34-1.46.94-1.86.94-3.35v-41c0-1.44-.33-2.5-.98-3.2-.65-.69-1.45-1.14-2.38-1.35-.93-.2-1.86-.31-2.79-.31l-1.07-.02v-3.76h17.86v49.63c0 1.49.31 2.61.94 3.35.63.75 1.42 1.23 2.38 1.46s1.9.35 2.83.35h1.07v3.78h-25.08zm53.53.05v-3.36l24.01-35.32h-12.29c-1.53 0-2.64.45-3.32 1.35s-1.33 2.47-1.93 4.71l-.33 1.31h-4.34l.9-12.62h33.84v3.44l-24.09 35.24h14.59c1.75 0 3-.57 3.77-1.72.76-1.15 1.34-2.79 1.72-4.92l.49-2.38h4.26l-.41 14.26h-36.87zm61.35.82c-6.56 0-11.6-1.98-15.12-5.94s-5.29-9.49-5.29-16.59c0-7.65 1.71-13.42 5.12-17.33s8.21-5.86 14.38-5.86c5.74 0 10.23 1.65 13.48 4.96s4.88 8.21 4.88 14.71v4.02h-27.04c.17 5.68 1.22 9.82 3.16 12.41 1.94 2.6 4.71 3.89 8.32 3.89 2.84 0 5.25-.63 7.21-1.89 1.97-1.26 3.44-2.73 4.43-4.43.6.27 1.08.73 1.43 1.35.35.63.53 1.35.53 2.17 0 1.37-.56 2.7-1.68 4.02-1.12 1.31-2.81 2.39-5.08 3.24s-5.18 1.27-8.73 1.27zm6.55-26.96c0-4.26-.56-7.62-1.68-10.08s-3.02-3.69-5.7-3.69c-2.57 0-4.59 1.18-6.06 3.52-1.47 2.35-2.32 5.76-2.54 10.24h15.98zm12.93 26.14v-4.02h.25c1.86 0 3.4-.34 4.63-1.02s1.84-2.31 1.84-4.88V39.45c0-2.4-.59-3.93-1.76-4.59s-2.66-.98-4.47-.98h-.25v-4.02h15.08l1.56 7.05h.41c.71-1.64 1.52-3.06 2.42-4.26s2.06-2.12 3.48-2.75 3.28-.94 5.57-.94c3.11 0 5.42.55 6.92 1.64s2.25 2.68 2.25 4.75c0 2.19-.79 3.92-2.38 5.2s-3.91 1.93-6.96 1.93c0-2.24-.29-3.91-.86-5s-1.65-1.64-3.24-1.64c-1.48 0-2.68.53-3.61 1.6s-1.65 2.39-2.17 3.97a24.5 24.5 0 0 0-1.07 4.92l-.29 4.26v13.69c0 2.4.59 3.92 1.76 4.55s2.61.94 4.3.94H308v4.02h-25.95zM235.9 84.99h1.69v4.05a3.07 3.07 0 0 1 2.5-1.27c2 0 3.45 1.58 3.45 4.09 0 2.56-1.47 4.08-3.45 4.08-1.02 0-1.9-.48-2.5-1.26v1.06h-1.69V84.99zm3.69 9.45c1.36 0 2.21-1.06 2.21-2.58 0-1.51-.85-2.59-2.21-2.59-.79 0-1.63.48-2 1.06v3.08c.37.57 1.21 1.03 2 1.03zm5.92 2.96c.53 0 .89-.16 1.11-.68l.39-.89-3.19-7.88h1.8l2.27 5.84 2.27-5.84h1.82l-3.75 9.19c-.53 1.32-1.47 1.74-2.68 1.76-.24 0-.71-.05-.95-.11l.26-1.51c.18.07.46.12.65.12zm11.74-12.41h4c3.35 0 5.62 2.22 5.62 5.38s-2.27 5.37-5.62 5.37h-4V84.99zm4 9.09c2.34 0 3.69-1.68 3.69-3.71 0-2.08-1.29-3.72-3.69-3.72h-2.11v7.43h2.11zm6.65-3.71c0-3.3 2.47-5.56 5.56-5.56 2.26 0 3.6 1.13 4.4 2.42l-1.61.82c-.51-.89-1.55-1.56-2.79-1.56-2.05 0-3.63 1.63-3.63 3.88 0 2.26 1.58 3.88 3.63 3.88 1.24 0 2.27-.66 2.79-1.56l1.61.82c-.82 1.29-2.14 2.42-4.4 2.42-3.09 0-5.56-2.25-5.56-5.56zm13.99.84l-.93 1.1v3.43h-1.89V84.99h1.89v5.13l4.21-5.13h2.34l-4.37 5.08 4.69 5.67h-2.32l-3.62-4.53zm14.33 2.47h-5.09l-.79 2.06h-2.06l4.22-10.75h2.35l4.22 10.75h-2.06l-.79-2.06zm-4.56-1.66h4.03l-2.01-5.43-2.02 5.43zm8.28-7.03h4.72c2.26 0 3.51 1.55 3.51 3.37s-1.27 3.37-3.51 3.37h-2.84v4.01h-1.89V84.99zm4.47 1.66h-2.58v3.42h2.58c1.06 0 1.84-.68 1.84-1.71-.01-1.03-.78-1.71-1.84-1.71zM187.22 24.41h.02.01.01.02c3.8-.02 6.87-3.1 6.87-6.91a6.91 6.91 0 0 0-6.87-6.91h-.01-.02 0-.02c-3.81.02-6.88 3.1-6.88 6.91s3.07 6.89 6.87 6.91zm4.95 38.84c-.95-3.44-1.19-7.21-1.26-10.23-.22-8.58 2.61-15.45 4.04-18.34l.97-1.76.31-.63h0a1.79 1.79 0 0 0 .15-.7c0-.94-.74-1.69-1.67-1.73-.02 0-.04-.01-.05-.01h-7.38-.02-.01-.01-.02-7.38c-.01 0-.02 0-.05.01-.93.03-1.67.79-1.67 1.73a1.63 1.63 0 0 0 .15.7h0l.31.63.97 1.76c1.42 2.89 4.25 9.76 4.04 18.34-.07 3.02-.31 6.79-1.26 10.23-.68 2.29-1.99 5.34-4.44 7.11v3.42h9.33.01.01.01 0 0 .01.01.01 9.33v-3.42c-2.45-1.78-3.76-4.82-4.44-7.11z"/><path d="M129 29.73l4.15-5.44 1.1-1.32 1.27-1.39a13.78 13.78 0 0 1 1.4-1.24 9.3 9.3 0 0 1 .76-.52 4.92 4.92 0 0 1 .82-.43 3.93 3.93 0 0 1 .67-.19c.61-.13 1.24-.17 1.86-.21l1.59-.05 1.14.01v-3.78H130.9l-1.31.13c-1.58.23-3.17 1.06-4.49 1.95-.29.2-.59.45-.89.7l-1.52 1.38c-1.26 1.27-2.55 2.83-3.88 4.78l-14.16 20.33h-.02l.01.02-.01.02h.02l14.16 20.33c1.33 1.95 2.62 3.51 3.88 4.78l1.52 1.38.89.7c1.31.89 2.91 1.71 4.49 1.95l1.31.13h12.85v-3.78l-1.14.01c-.53 0-1.06-.02-1.59-.05l-1.86-.21c-.23-.05-.45-.11-.67-.19a4.92 4.92 0 0 1-.82-.43l-.76-.52a13.78 13.78 0 0 1-1.4-1.24l-1.27-1.39-1.1-1.32-4.15-5.44-3.09-4.21-7.74-10.53 7.74-10.53 3.1-4.19zM36.67 9.52C16.92 9.52.91 25.53.91 45.28s16.01 35.76 35.76 35.76 35.76-16.01 35.76-35.76S56.42 9.52 36.67 9.52zm7.17 56.34h-5.61l-.76-.02c-.51-.03-1.03-.06-1.53-.17-.19-.04-.37-.09-.55-.16-.24-.09-.46-.22-.67-.35s-.42-.28-.62-.43a11.08 11.08 0 0 1-1.15-1.01c-.36-.36-.71-.75-1.04-1.14a42.88 42.88 0 0 1-.9-1.08c-1.19-1.44-2.29-2.95-3.4-4.45l-2.54-3.45-6.34-8.62c.11-.16 3.79-5.16 6.34-8.62l2.54-3.45c1.11-1.5 2.21-3.02 3.4-4.45l.9-1.08c.33-.39.68-.77 1.04-1.14.36-.36.74-.71 1.15-1.01.2-.15.41-.3.62-.43s.43-.26.67-.35c.18-.07.36-.12.55-.16.5-.1 1.02-.14 1.53-.17a20.56 20.56 0 0 1 1.11-.03h.77.35 0 4.56c.45.02.91.09 1.36.17-.09.01-.19.01-.28.03-.19.04-.37.09-.55.16-.24.09-.46.22-.67.35s-.42.28-.62.43a11.08 11.08 0 0 0-1.15 1.01c-.36.36-.71.75-1.04 1.14a42.88 42.88 0 0 0-.9 1.08c-1.19 1.44-2.29 2.95-3.4 4.45l-2.54 3.45-6.34 8.62c.11.16 3.79 5.16 6.34 8.62l2.54 3.45c1.11 1.5 2.21 3.02 3.4 4.45l.9 1.08c.33.39.68.77 1.04 1.14.36.36.74.71 1.15 1.01.2.15.41.3.62.43s.43.26.67.35c.18.07.36.12.55.16.06.01.13.01.19.02a9.31 9.31 0 0 1-1.69.17zm8.77-4.23c0 1.22-.26 2.14-.77 2.75-.52.61-1.15 1.01-1.91 1.2-.2.05-.41.08-.61.11-.06-.01-.13-.01-.19-.02-.19-.04-.37-.09-.55-.16-.24-.09-.46-.22-.67-.35s-.42-.28-.62-.43a11.08 11.08 0 0 1-1.15-1.01c-.36-.36-.71-.75-1.04-1.14a42.88 42.88 0 0 1-.9-1.08c-1.19-1.44-2.29-2.95-3.4-4.45l-2.54-3.45-6.34-8.62c.11-.16 3.79-5.16 6.34-8.62l2.54-3.45c1.11-1.5 2.21-3.02 3.4-4.45l.9-1.08c.33-.39.68-.77 1.04-1.14.36-.36.74-.71 1.15-1.01.2-.15.41-.3.62-.43s.43-.26.67-.35c.18-.07.36-.12.55-.16.09-.02.19-.02.28-.03.15.03.31.02.46.06a3.76 3.76 0 0 1 1.95 1.11c.54.57.81 1.44.81 2.62v33.58z"/></svg>